<svg width="20" height="20" viewBox="0 0 20 20" fill="none" xmlns="http://www.w3.org/2000/svg">
<g id="fi_879757" clip-path="url(#clip0_37719_343)">
<g id="Group">
<g id="Group_2">
<path id="Vector" d="M18.6701 10.2591C18.5897 10.0944 18.5897 9.90558 18.6701 9.74097L19.4161 8.215C19.8314 7.36536 19.5023 6.35267 18.6669 5.90943L17.1666 5.11334C17.0047 5.02748 16.8937 4.87467 16.862 4.69424L16.5686 3.02124C16.4052 2.08977 15.5436 1.46383 14.6074 1.59629L12.9256 1.83418C12.7441 1.85981 12.5646 1.80145 12.4329 1.67406L11.2122 0.493134C10.5325 -0.16444 9.46762 -0.164479 8.78793 0.493134L7.56716 1.67418C7.43544 1.8016 7.25595 1.85985 7.07447 1.8343L5.39272 1.59641C4.4562 1.46387 3.59488 2.08988 3.43148 3.02136L3.13805 4.69428C3.10637 4.87475 2.99539 5.02752 2.83356 5.11342L1.33317 5.90951C0.497788 6.35271 0.168727 7.36548 0.584037 8.21512L1.32993 9.74105C1.4104 9.9057 1.4104 10.0945 1.32993 10.2591L0.583998 11.7851C0.168688 12.6347 0.497749 13.6474 1.33313 14.0906L2.83352 14.8867C2.99539 14.9726 3.10637 15.1254 3.13805 15.3058L3.43148 16.9788C3.58023 17.8268 4.30734 18.4215 5.14299 18.4214C5.2253 18.4214 5.30881 18.4156 5.39276 18.4037L7.07451 18.1658C7.25587 18.1401 7.43548 18.1986 7.5672 18.326L8.78793 19.5069C9.12785 19.8357 9.56387 20.0001 10 20.0001C10.4361 20 10.8724 19.8356 11.2121 19.5069L12.4329 18.326C12.5646 18.1986 12.7442 18.1404 12.9256 18.1658L14.6074 18.4037C15.544 18.5362 16.4052 17.9103 16.5686 16.9788L16.8621 15.3059C16.8937 15.1254 17.0047 14.9726 17.1666 14.8867L18.6669 14.0906C19.5023 13.6474 19.8314 12.6347 19.4161 11.785L18.6701 10.2591ZM18.1263 13.0716L16.6259 13.8677C16.1475 14.1216 15.8195 14.5731 15.7259 15.1065L15.4325 16.7794C15.3772 17.0946 15.0858 17.3063 14.7689 17.2616L13.0872 17.0237C12.5508 16.9477 12.0201 17.1203 11.6309 17.4968L10.4101 18.6777C10.1802 18.9001 9.81992 18.9001 9.58992 18.6777L8.36919 17.4968C8.0402 17.1785 7.61013 17.0061 7.16115 17.0061C7.07888 17.0061 6.99595 17.0119 6.91291 17.0236L5.23116 17.2615C4.91452 17.3063 4.62292 17.0946 4.56761 16.7794L4.27413 15.1064C4.18054 14.573 3.85249 14.1215 3.3741 13.8677L1.87372 13.0716C1.59106 12.9216 1.47974 12.579 1.62024 12.2915L2.36618 10.7656C2.60399 10.279 2.60399 9.72097 2.36618 9.23441L1.62024 7.70844C1.47974 7.42098 1.59106 7.07837 1.87372 6.92841L3.3741 6.13232C3.85246 5.87845 4.18054 5.42697 4.27409 4.89354L4.56753 3.22058C4.62284 2.90543 4.91417 2.69371 5.23108 2.73847L6.91283 2.97636C7.44896 3.05226 7.97985 2.87972 8.36911 2.5032L9.58988 1.32227C9.8198 1.09985 10.1801 1.09985 10.4101 1.32227L11.6308 2.5032C12.0201 2.87976 12.5509 3.05226 13.0871 2.97636L14.7688 2.73847C15.0855 2.69367 15.3771 2.90543 15.4324 3.22058L15.7258 4.89358C15.8194 5.42701 16.1475 5.87853 16.6259 6.13232L18.1262 6.92841C18.4089 7.07837 18.5202 7.42098 18.3797 7.70844L17.6338 9.23437C17.396 9.72089 17.396 10.279 17.6338 10.7655L18.3797 12.2915C18.5203 12.579 18.4089 12.9217 18.1263 13.0716Z" fill="#32902F"/>
</g>
</g>
<g id="Group_3">
<g id="Group_4">
<path id="Vector_2" d="M14.2142 5.78575C13.989 5.56051 13.6238 5.56051 13.3986 5.78575L5.78575 13.3986C5.56051 13.6238 5.56051 13.989 5.78575 14.2143C5.89836 14.3269 6.04598 14.3832 6.19356 14.3832C6.34113 14.3832 6.48879 14.3269 6.60137 14.2143L14.2142 6.60144C14.4395 6.37617 14.4395 6.01102 14.2142 5.78575Z" fill="#32902F"/>
</g>
</g>
<g id="Group_5">
<g id="Group_6">
<path id="Vector_3" d="M7.69292 4.8092C6.52683 4.8092 5.57812 5.75791 5.57812 6.924C5.57812 8.09008 6.52683 9.03879 7.69292 9.03879C8.859 9.03879 9.80771 8.09008 9.80771 6.924C9.80771 5.75791 8.859 4.8092 7.69292 4.8092ZM7.69292 7.88524C7.16288 7.88524 6.73167 7.45403 6.73167 6.92396C6.73167 6.39392 7.16288 5.96271 7.69292 5.96271C8.22295 5.96271 8.6542 6.39392 8.6542 6.92396C8.65416 7.45403 8.22295 7.88524 7.69292 7.88524Z" fill="#32902F"/>
</g>
</g>
<g id="Group_7">
<g id="Group_8">
<path id="Vector_4" d="M12.3071 10.9612C11.141 10.9612 10.1923 11.9099 10.1923 13.076C10.1923 14.2421 11.141 15.1908 12.3071 15.1908C13.4731 15.1908 14.4218 14.2421 14.4218 13.076C14.4218 11.9099 13.4731 10.9612 12.3071 10.9612ZM12.3071 14.0373C11.777 14.0373 11.3458 13.6061 11.3458 13.076C11.3458 12.546 11.777 12.1148 12.3071 12.1148C12.8371 12.1148 13.2683 12.546 13.2683 13.076C13.2683 13.6061 12.8371 14.0373 12.3071 14.0373Z" fill="#32902F"/>
</g>
</g>
</g>
<defs>
<clipPath id="clip0_37719_343">
<rect width="20" height="20" fill="white"/>
</clipPath>
</defs>
</svg>
